<svg width="19" height="24" viewBox="0 0 19 24" fill="none" xmlns="http://www.w3.org/2000/svg">
<path fill-rule="evenodd" clip-rule="evenodd" d="M16.2907 3.84C16.8032 3.83988 17.2254 4.24237 17.2498 4.7543L18.1185 22.9943C18.131 23.2566 18.0356 23.5125 17.8544 23.7025C17.6732 23.8925 17.4221 24 17.1595 24H1.79949C1.53702 23.9999 1.28603 23.8923 1.10493 23.7023C0.92384 23.5123 0.828439 23.2565 0.840933 22.9943L1.70954 4.7543C1.73394 4.24241 2.1561 3.83993 2.66858 3.84H5.68615C5.68615 1.71923 7.40538 0 9.52615 0C11.6469 0 13.3661 1.71923 13.3661 3.84H16.2907ZM12.4061 3.84C12.4043 2.25017 11.116 0.961799 9.52614 0.96C7.93631 0.961799 6.64794 2.25017 6.64614 3.84H12.4061ZM2.66859 4.8H5.68616V8.16C5.68616 8.4251 5.90106 8.64 6.16616 8.64C6.43126 8.64 6.64616 8.4251 6.64616 8.16V4.8H12.4062V8.16C12.4062 8.4251 12.6211 8.64 12.8862 8.64C13.1513 8.64 13.3662 8.4251 13.3662 8.16V4.8H16.2797L16.9741 19.2H1.98286L2.66859 4.8ZM1.93668 20.16L1.7995 23.04H17.1595L17.0204 20.16H1.93668Z" fill="#333333"/>
</svg>
