<svg width="32" height="32" viewBox="0 0 32 32" fill="none" xmlns="http://www.w3.org/2000/svg">
<path fill-rule="evenodd" clip-rule="evenodd" d="M16 0C7.16344 0 0 7.16344 0 16C0 24.8366 7.16344 32 16 32C24.8366 32 32 24.8366 32 16C32 7.16344 24.8366 0 16 0ZM22.6677 10.4996C23.4021 10.7011 23.9804 11.2948 24.1767 12.0488C24.5333 13.4154 24.5333 16.2667 24.5333 16.2667C24.5333 16.2667 24.5333 19.1179 24.1767 20.4845C23.9804 21.2385 23.4021 21.8323 22.6677 22.0339C21.3369 22.4 16 22.4 16 22.4C16 22.4 10.6631 22.4 9.33217 22.0339C8.59782 21.8323 8.01949 21.2385 7.82322 20.4845C7.46667 19.1179 7.46667 16.2667 7.46667 16.2667C7.46667 16.2667 7.46667 13.4154 7.82322 12.0488C8.01949 11.2948 8.59782 10.7011 9.33217 10.4996C10.6631 10.1333 16 10.1333 16 10.1333C16 10.1333 21.3369 10.1333 22.6677 10.4996Z" fill="white"/>
<path fill-rule="evenodd" clip-rule="evenodd" d="M14.3999 19.2V13.8667L18.6666 16.5335L14.3999 19.2Z" fill="white"/>
</svg>
