<svg width="27" height="27" viewBox="0 0 27 27" fill="none" xmlns="http://www.w3.org/2000/svg">
<path fill-rule="evenodd" clip-rule="evenodd" d="M18.5236 17.7716L26.2906 25.5387C26.4921 25.7474 26.4892 26.0791 26.2841 26.2842C26.0789 26.4894 25.7473 26.4923 25.5386 26.2907L17.7716 18.5236C13.6848 22.2027 7.41061 21.9559 3.62549 17.9669C-0.159626 13.978 -0.0773115 7.69955 3.81109 3.8112C7.69948 -0.0771477 13.978 -0.159461 17.967 3.62561C21.956 7.41068 22.2029 13.6848 18.5236 17.7716ZM1.98363 11.0243C1.98363 16.0173 6.0313 20.0649 11.0244 20.0649C16.015 20.0591 20.0592 16.0149 20.0651 11.0243C20.0651 6.03132 16.0174 1.9837 11.0244 1.9837C6.0313 1.9837 1.98363 6.03132 1.98363 11.0243Z" fill="black"/>
</svg>
