<svg width="19" height="23" viewBox="0 0 19 23" fill="none" xmlns="http://www.w3.org/2000/svg">
<path fill-rule="evenodd" clip-rule="evenodd" d="M15.0934 5.42961C15.6947 8.04541 14.4096 10.7298 11.995 11.9018C15.63 13.0124 18.1148 16.365 18.1198 20.1659V21.6059C18.1198 21.871 17.9049 22.0859 17.6398 22.0859C17.3747 22.0859 17.1598 21.871 17.1598 21.6059V20.1659C17.1598 15.9244 13.7214 12.4859 9.47984 12.4859C5.2383 12.4859 1.79984 15.9244 1.79984 20.1659V21.6059C1.79984 21.871 1.58494 22.0859 1.31984 22.0859C1.05475 22.0859 0.839844 21.871 0.839844 21.6059V20.1659C0.844914 16.365 3.32965 13.0124 6.96464 11.9018C4.55004 10.7298 3.26495 8.04541 3.86625 5.42961C4.46754 2.81381 6.79583 0.960007 9.47984 0.960007C12.1639 0.960007 14.4921 2.81381 15.0934 5.42961ZM9.47984 1.9259C6.82888 1.9259 4.67984 4.07493 4.67984 6.7259C4.68281 9.37564 6.8301 11.5229 9.47984 11.5259C12.1308 11.5259 14.2798 9.37687 14.2798 6.7259C14.2798 4.07493 12.1308 1.9259 9.47984 1.9259Z" fill="black"/>
</svg>
